Coordinates
version=1
nRows=14
nColumns=40
inDegrees=yes

Units are S.I. units (second, meters, Newtons, ...)
Angles are in degrees.

endheader
time	pelvis_tilt	pelvis_list	pelvis_rotation	pelvis_tx	pelvis_ty	pelvis_tz	hip_flexion_r	hip_adduction_r	hip_rotation_r	knee_angle_r	knee_angle_r_beta	ankle_angle_r	subtalar_angle_r	mtp_angle_r	hip_flexion_l	hip_adduction_l	hip_rotation_l	knee_angle_l	knee_angle_l_beta	ankle_angle_l	subtalar_angle_l	mtp_angle_l	lumbar_extension	lumbar_bending	lumbar_rotation	arm_flex_r	arm_add_r	arm_rot_r	elbow_flex_r	pro_sup_r	wrist_flex_r	wrist_dev_r	arm_flex_l	arm_add_l	arm_rot_l	elbow_flex_l	pro_sup_l	wrist_flex_l	wrist_dev_l
     21.94250000	     -5.62160780	     -6.25646611	     -8.79476241	      1.01757477	      0.93004460	      0.51562599	     14.25994490	      6.63367334	     -6.82245667	     13.23405773	     13.23405773	      6.20167800	      5.50741264	     -6.80693395	     -2.57620779	    -11.49380319	    -14.93533788	     13.61986302	     13.61986302	     17.72093470	     -4.75588221	      1.94870300	     -6.83586067	      7.79246060	      1.95998668	    -14.56252726	    -13.40657816	     -2.06526733	     29.84838130	     45.18540128	      0.00000000	      0.00000000	     40.29074940	    -21.20820872	    -10.93301682	     71.55153468	     48.21453013	      0.00000000	      0.00000000
     21.96657143	     -5.44320394	     -6.36220173	     -8.20492510	      1.01782280	      0.93009824	      0.52075062	     13.82847693	      6.97488099	     -7.00278332	     13.53299118	     13.53299118	      7.10290116	      5.07716698	     -5.75726314	     -2.23612942	    -12.30431172	    -14.76236708	     15.21767453	     15.21767453	     18.39689696	     -4.03303029	      2.96723865	     -6.87035596	      7.67980748	      1.83913995	    -12.91263860	    -13.64429696	     -1.99823742	     28.66875287	     45.30438701	      0.00000000	      0.00000000	     38.75599167	    -21.05427913	     -9.94834855	     71.17813937	     48.10485174	      0.00000000	      0.00000000
     21.99064286	     -5.19966176	     -6.47631512	     -7.56451634	      1.01807553	      0.93007597	      0.52550856	     13.30687570	      7.27480844	     -7.41226346	     13.74947162	     13.74947162	      7.62461492	      4.80720168	     -5.85163586	     -1.76783727	    -13.02532704	    -13.90032549	     17.04398629	     17.04398629	     18.28183663	     -4.62690504	      2.61851524	     -6.96158297	      7.64794364	      1.92385767	    -11.81122078	    -14.06736300	     -2.10267451	     28.91977665	     45.32008146	      0.00000000	      0.00000000	     37.09882993	    -20.31839731	     -9.56978600	     70.50052490	     48.05107872	      0.00000000	      0.00000000
     22.01471429	     -5.03334547	     -6.51719211	     -6.89052562	      1.01819690	      0.92980429	      0.53010742	     12.95508840	      7.50820088	     -7.77524835	     14.08843160	     14.08843160	      8.19689648	      4.38121539	     -5.86322806	     -0.83464772	    -13.72935690	    -12.85935042	     19.49627272	     19.49627272	     18.02661095	     -5.51558484	      1.91741054	     -6.89138437	      7.53954639	      1.88246609	    -10.35364540	    -14.36542138	     -2.22398104	     29.14341138	     45.34411901	      0.00000000	      0.00000000	     35.08487938	    -19.66430842	     -9.04295657	     69.61081581	     47.97918871	      0.00000000	      0.00000000
     22.03878571	     -4.67492043	     -6.60555717	     -6.24410100	      1.01825745	      0.92963943	      0.53455511	     12.45167319	      7.76894446	     -8.07274162	     14.53507769	     14.53507769	      8.81659529	      3.95745239	     -5.90748970	      0.16712924	    -14.45754375	    -11.72982814	     22.44983899	     22.44983899	     17.61685142	     -6.71033361	      1.09243175	     -7.08872699	      7.48653699	      1.99673679	     -8.70618783	    -14.69564135	     -2.34389265	     29.40779431	     45.36483323	      0.00000000	      0.00000000	     32.89983798	    -18.92013278	     -8.47419040	     68.63991056	     47.90282473	      0.00000000	      0.00000000
     22.06285714	     -4.39131072	     -6.66623446	     -5.56101797	      1.01810077	      0.92914619	      0.53873517	     12.14453167	      7.99324745	     -8.39488721	     15.14369489	     15.14369489	      9.46371722	      3.36728795	     -5.91599870	      1.62403648	    -15.14125095	    -10.40296742	     25.95052554	     25.95052554	     17.00451562	     -8.29536023	      0.13767749	     -7.18920029	      7.40392576	      2.04433331	     -6.78194453	    -14.95396453	     -2.47515167	     29.69617816	     45.38750970	      0.00000000	      0.00000000	     30.41165259	    -18.14102843	     -7.80997795	     67.44159761	     47.81345871	      0.00000000	      0.00000000
     22.08692857	     -4.17819546	     -6.57839817	     -4.88692799	      1.01763699	      0.92836007	      0.54251646	     12.22515893	      8.02419553	     -8.59945616	     16.30664746	     16.30664746	     10.63957240	      2.57346232	     -4.65198681	      3.35576444	    -15.44183863	     -8.60989851	     29.51134060	     29.51134060	     15.15666055	    -11.31748492	     -2.44065512	     -7.10589929	      7.21082294	      1.64419694	     -3.57054690	    -14.89488443	     -2.85796066	     27.95929134	     45.57812190	      0.00000000	      0.00000000	     27.35688507	    -17.86415089	     -6.71791902	     66.06369653	     47.66432311	      0.00000000	      0.00000000
     22.11100000	     -3.68409698	     -6.74552297	     -4.19393783	      1.01720099	      0.92753009	      0.54624647	     11.85105249	      8.32206175	     -8.92050913	     17.17257681	     17.17257681	     11.32418885	      1.89936091	     -4.86063050	      5.14057282	    -16.15793652	     -7.34614990	     33.77716114	     33.77716114	     14.39980051	    -13.06241224	     -2.85676632	     -7.48693697	      7.24378056	      1.91383835	     -1.34345501	    -15.18393933	     -3.01572515	     28.71881333	     45.58377829	      0.00000000	      0.00000000	     24.69405319	    -16.78147950	     -6.11315167	     64.59729213	     47.57434713	      0.00000000	      0.00000000
     22.13507143	     -3.46646462	     -6.60601902	     -3.49034602	      1.01615602	      0.92612503	      0.54944275	     12.19085029	      8.28264086	     -8.97216671	     18.70609862	     18.70609862	     12.45415054	      0.67339189	     -3.97191017	      7.56182199	    -16.28513108	     -5.62697798	     38.27600978	     38.27600978	     14.07640245	    -15.28747799	     -0.79107185	     -7.48385636	      7.01096609	      1.68731649	      1.82976875	    -15.08493407	     -3.52815119	     28.18388033	     45.72552402	      0.00000000	      0.00000000	     21.79235358	    -16.02386283	     -5.18689237	     61.85308729	     47.42577404	      0.00000000	      0.00000000
     22.15914286	     -3.06766243	     -6.61333626	     -2.75090945	      1.01504088	      0.92465547	      0.55243308	     12.27915362	      8.40871441	     -9.03301608	     20.10842837	     20.10842837	     13.39622229	     -0.59157576	     -3.52090216	      9.94608007	    -16.56436425	     -4.17809832	     42.80359225	     42.80359225	     14.37842271	    -16.74950270	      2.68814024	     -7.76104396	      6.90906120	      1.73400852	      4.80927129	    -15.12728525	     -4.01029253	     28.49297064	     45.81602720	      0.00000000	      0.00000000	     19.02379613	    -15.02836652	     -4.25969799	     59.12197434	     47.28488810	      0.00000000	      0.00000000
     22.18321429	     -2.68340234	     -6.62559312	     -1.97680967	      1.01373681	      0.92284964	      0.55514426	     12.42840081	      8.54230886	     -9.08142502	     21.53971267	     21.53971267	     14.17022310	     -1.99598839	     -3.65194638	     12.34375817	    -16.88857586	     -3.03681219	     46.81538686	     46.81538686	     13.88620105	    -18.03394959	      4.02248455	     -8.03802023	      6.81536927	      1.62684399	      7.79984128	    -15.15231215	     -4.20046988	     29.61145171	     45.81620013	      0.00000000	      0.00000000	     15.96951962	    -14.07526144	     -3.44442062	     56.59976745	     47.15972576	      0.00000000	      0.00000000
     22.20728571	     -2.20967234	     -6.77059262	     -1.14516860	      1.01222411	      0.92095114	      0.55757030	     12.48921387	      8.82335025	     -9.18587380	     22.92220870	     22.92220870	     14.86359957	     -3.46368205	     -3.69281192	     14.74622390	    -17.36721031	     -2.00558837	     50.47332239	     50.47332239	     13.86757761	    -18.70559816	      5.76709131	     -8.49178219	      6.84033142	      1.69026738	     10.91956407	    -15.27815088	     -4.35473919	     30.68044874	     45.81339724	      0.00000000	      0.00000000	     13.09055430	    -13.04575276	     -2.61679939	     53.94146923	     47.03292037	      0.00000000	      0.00000000
     22.23135714	     -1.79421376	     -6.62928055	     -0.30733821	      1.01047895	      0.91930919	      0.55946224	     12.62529775	      8.85395730	     -8.97135767	     24.30245461	     24.30245461	     15.82771725	     -5.24295844	     -2.54029214	     17.41268062	    -17.14221260	     -0.56173140	     53.96983607	     53.96983607	     16.85956517	    -18.94251828	     15.77374651	     -8.78358509	      6.59079324	      2.03551277	     14.44137905	    -15.32137902	     -4.64424120	     30.46096961	     45.89441077	      0.00000000	      0.00000000	     11.35853770	    -11.78116777	     -1.05102294	     48.31338868	     46.82249999	      0.00000000	      0.00000000
     22.25542857	     -1.34109001	     -6.59995043	      0.59280217	      1.00870465	      0.91767340	      0.56115346	     12.62345817	      9.00337944	     -8.91281450	     25.46330545	     25.46330545	     16.52226919	     -6.88654500	     -2.00508606	     19.75009868	    -17.22923668	      0.39150392	     56.19761939	     56.19761939	     17.46754607	    -19.22270462	     18.50469207	     -9.21508316	      6.44758978	      2.01868861	     17.82582790	    -15.30890521	     -5.06702325	     31.72855608	     45.90992624	      0.00000000	      0.00000000	      8.84070920	    -10.85905633	      0.07048677	     44.48986641	     46.65727273	      0.00000000	      0.00000000
